<svg width="24" height="24" viewBox="0 0 24 24" fill="none" xmlns="http://www.w3.org/2000/svg">
<path d="M3 5.88525H5M5 5.88525H21M5 5.88525V19.8853C5 20.4157 5.21071 20.9244 5.58579 21.2995C5.96086 21.6745 6.46957 21.8853 7 21.8853H17C17.5304 21.8853 18.0391 21.6745 18.4142 21.2995C18.7893 20.9244 19 20.4157 19 19.8853V5.88525H5ZM8 5.88525V3.88525C8 3.35482 8.21071 2.84611 8.58579 2.47104C8.96086 2.09597 9.46957 1.88525 10 1.88525H14C14.5304 1.88525 15.0391 2.09597 15.4142 2.47104C15.7893 2.84611 16 3.35482 16 3.88525V5.88525M10 10.8853V16.8853M14 10.8853V16.8853" stroke="#F32752" stroke-width="2" stroke-linecap="round" stroke-linejoin="round"/>
</svg>
