<svg width="24" height="24" viewBox="0 0 24 24" fill="none" xmlns="http://www.w3.org/2000/svg">
<path d="M17 20.8853V18.8853C17 17.8244 16.5786 16.807 15.8284 16.0568C15.0783 15.3067 14.0609 14.8853 13 14.8853H5C3.93913 14.8853 2.92172 15.3067 2.17157 16.0568C1.42143 16.807 1 17.8244 1 18.8853V20.8853M23 20.8853V18.8853C22.9993 17.999 22.7044 17.138 22.1614 16.4376C21.6184 15.7371 20.8581 15.2368 20 15.0153M16 3.01525C16.8604 3.23556 17.623 3.73595 18.1676 4.43756C18.7122 5.13917 19.0078 6.00208 19.0078 6.89025C19.0078 7.77842 18.7122 8.64133 18.1676 9.34294C17.623 10.0446 16.8604 10.545 16 10.7653M13 6.88525C13 9.09439 11.2091 10.8853 9 10.8853C6.79086 10.8853 5 9.09439 5 6.88525C5 4.67611 6.79086 2.88525 9 2.88525C11.2091 2.88525 13 4.67611 13 6.88525Z" stroke="#4F4F4F" stroke-width="2" stroke-linecap="round" stroke-linejoin="round"/>
</svg>
