<svg width="22" height="22" viewBox="0 0 22 22" fill="none" xmlns="http://www.w3.org/2000/svg">
<path d="M16 1.88525C16.2626 1.62261 16.5744 1.41427 16.9176 1.27212C17.2608 1.12998 17.6286 1.05682 18 1.05682C18.3714 1.05682 18.7392 1.12998 19.0824 1.27212C19.4256 1.41427 19.7374 1.62261 20 1.88525C20.2626 2.14789 20.471 2.4597 20.6131 2.80286C20.7553 3.14602 20.8284 3.51382 20.8284 3.88525C20.8284 4.25669 20.7553 4.62448 20.6131 4.96764C20.471 5.3108 20.2626 5.62261 20 5.88525L6.5 19.3853L1 20.8853L2.5 15.3853L16 1.88525Z" stroke="#848484" stroke-width="2" stroke-linecap="round" stroke-linejoin="round"/>
</svg>
