<svg width="56" height="56" viewBox="0 0 56 56" fill="none" xmlns="http://www.w3.org/2000/svg">
<rect x="0.5" y="0.5" width="54.1962" height="54.1962" rx="11.5" fill="white" stroke="#F2F2F2"/>
<g clip-path="url(#clip0)">
<path d="M31.5001 37.2121V35.2709C31.5001 34.2413 31.091 33.2538 30.363 32.5257C29.6349 31.7976 28.6474 31.3886 27.6177 31.3886H19.853C18.8234 31.3886 17.8359 31.7976 17.1078 32.5257C16.3797 33.2538 15.9707 34.2413 15.9707 35.2709V37.2121M37.3236 37.2121V35.2709C37.323 34.4107 37.0366 33.5751 36.5096 32.8952C35.9826 32.2154 35.2447 31.7298 34.4118 31.5148M30.5295 19.8677C31.3646 20.0816 32.1048 20.5672 32.6334 21.2482C33.162 21.9292 33.4489 22.7667 33.4489 23.6288C33.4489 24.4908 33.162 25.3283 32.6334 26.0093C32.1048 26.6903 31.3646 27.176 30.5295 27.3898M27.6177 23.6239C27.6177 25.7681 25.8796 27.5062 23.7354 27.5062C21.5912 27.5062 19.853 25.7681 19.853 23.6239C19.853 21.4797 21.5912 19.7416 23.7354 19.7416C25.8796 19.7416 27.6177 21.4797 27.6177 23.6239Z" stroke="#848484" stroke-width="2" stroke-linecap="round" stroke-linejoin="round"/>
</g>
<path d="M32.9019 30.5294C37.1902 30.5294 40.6666 27.053 40.6666 22.7647C40.6666 18.4764 37.1902 15 32.9019 15C28.6136 15 25.1372 18.4764 25.1372 22.7647C25.1372 27.053 28.6136 30.5294 32.9019 30.5294Z" fill="white"/>
<path d="M32.9019 19.6588V22.7647M32.9019 25.8706H32.9097M40.6666 22.7647C40.6666 27.053 37.1902 30.5294 32.9019 30.5294C28.6136 30.5294 25.1372 27.053 25.1372 22.7647C25.1372 18.4764 28.6136 15 32.9019 15C37.1902 15 40.6666 18.4764 40.6666 22.7647Z" stroke="white" stroke-width="2" stroke-linecap="round" stroke-linejoin="round"/>
<path d="M32.902 29.2353C36.4756 29.2353 39.3725 26.3383 39.3725 22.7647C39.3725 19.1911 36.4756 16.2941 32.902 16.2941C29.3284 16.2941 26.4314 19.1911 26.4314 22.7647C26.4314 26.3383 29.3284 29.2353 32.902 29.2353Z" fill="white"/>
<path d="M32.902 20.1765V22.7647M32.902 25.3529H32.9084M39.3725 22.7647C39.3725 26.3383 36.4756 29.2353 32.902 29.2353C29.3284 29.2353 26.4314 26.3383 26.4314 22.7647C26.4314 19.1911 29.3284 16.2941 32.902 16.2941C36.4756 16.2941 39.3725 19.1911 39.3725 22.7647Z" stroke="#848484" stroke-width="2" stroke-linecap="round" stroke-linejoin="round"/>
<defs>
<clipPath id="clip0">
<rect width="23.2941" height="23.2941" fill="white" transform="translate(15 16.9412)"/>
</clipPath>
</defs>
</svg>
