<svg width="87" height="84" viewBox="0 0 87 84" fill="none" xmlns="http://www.w3.org/2000/svg">
<rect x="0.5" y="7.5" width="76" height="76" rx="11.5" stroke="#F2F2F2"/>
<path d="M32.5216 53.3835L26.5424 59.3627M23.1258 62.7794L26.5424 59.3627L23.1258 62.7794ZM39.5428 46.3623C38.6608 45.4919 37.9595 44.4557 37.4796 43.3133C36.9996 42.1708 36.7504 40.9447 36.7462 39.7055C36.7421 38.4664 36.9831 37.2386 37.4554 36.093C37.9277 34.9473 38.6219 33.9064 39.4982 33.0302C40.3744 32.154 41.4153 31.4597 42.5609 30.9874C43.7066 30.5151 44.9343 30.2741 46.1735 30.2783C47.4127 30.2824 48.6388 30.5317 49.7812 31.0116C50.9237 31.4916 51.9599 32.1928 52.8303 33.0749C54.5418 34.8469 55.4888 37.2203 55.4674 39.6839C55.446 42.1475 54.4579 44.504 52.7158 46.2461C50.9737 47.9882 48.6171 48.9763 46.1536 48.9977C43.69 49.0191 41.3166 48.0721 39.5445 46.3606L39.5428 46.3623ZM39.5428 46.3623L32.5216 53.3835L39.5428 46.3623ZM32.5216 53.3835L27.3966 48.2585L21.4174 54.2377L26.5424 59.3627L32.5216 53.3835Z" stroke="url(#paint0_linear)" stroke-width="4" stroke-linecap="round" stroke-linejoin="round"/>
<rect x="64" width="22.4235" height="22.4235" rx="6" fill="white"/>
<rect x="66.5869" y="2.58734" width="17.2488" height="17.2488" rx="4" fill="#EB5757"/>
<path d="M75.2118 7.76196V11.2117M75.2031 14.6615H75.2117" stroke="white" stroke-width="2" stroke-linecap="round" stroke-linejoin="round"/>
<defs>
<linearGradient id="paint0_linear" x1="48.3736" y1="25.896" x2="27.1656" y2="63.642" gradientUnits="userSpaceOnUse">
<stop stop-color="#EE0979"/>
<stop offset="1" stop-color="#FF6A00"/>
</linearGradient>
</defs>
</svg>
