<svg width="623" height="189" viewBox="0 0 623 189" fill="none" xmlns="http://www.w3.org/2000/svg">
<g clip-path="url(#clip0)">
<rect width="623" height="189" fill="white"/>
<path d="M273.49 85.8143C271.075 87.091 267.434 87.7293 262.569 87.7293C251.044 87.7293 245.282 81.7427 245.282 69.7693V45.4949H236.69V33.4354H245.282V21.9969L261.586 17.3387V33.4354H273.49V45.4949H261.586V66.9227C261.586 72.4435 263.777 75.2039 268.159 75.2039C269.884 75.2039 271.661 74.7036 273.49 73.7029V85.8143ZM324.732 86.4354H309.257V78.827H309.05C305.496 84.7619 300.234 87.7293 293.264 87.7293C288.122 87.7293 284.068 86.2801 281.1 83.3817C278.168 80.4487 276.701 76.5496 276.701 71.6844C276.701 61.4018 282.791 55.4669 294.972 53.8797L309.36 51.9647C309.36 46.1678 306.22 43.2693 299.94 43.2693C293.626 43.2693 287.622 45.1499 281.929 48.9109V36.5926C284.206 35.4194 287.311 34.3843 291.245 33.4871C295.213 32.59 298.819 32.1414 302.062 32.1414C317.176 32.1414 324.732 39.6808 324.732 54.7596V86.4354ZM309.36 64.9041V61.3328L299.733 62.575C294.419 63.2651 291.763 65.6632 291.763 69.7693C291.763 71.6326 292.401 73.1681 293.678 74.3758C294.989 75.549 296.749 76.1356 298.957 76.1356C302.028 76.1356 304.529 75.0832 306.462 72.9783C308.394 70.839 309.36 68.1476 309.36 64.9041ZM412.309 33.4354L397.04 86.4354H379.856L372.041 55.3807C371.523 53.3104 371.23 51.0503 371.161 48.6004H370.851C370.609 51.2918 370.264 53.4829 369.815 55.1736L361.431 86.4354H344.454L329.496 33.4354H346.162L353.46 68.0096C353.805 69.6313 354.064 71.5981 354.236 73.91H354.547C354.719 71.4946 355.03 69.4588 355.479 67.8026L364.588 33.4354H380.167L388.345 68.0096C388.552 68.8722 388.793 70.8735 389.069 74.0135H389.432C389.604 72.0122 389.88 70.0109 390.26 68.0096L397.144 33.4354H412.309ZM462.102 86.4354H446.626V78.827H446.419C442.865 84.7619 437.603 87.7293 430.633 87.7293C425.492 87.7293 421.437 86.2801 418.47 83.3817C415.537 80.4487 414.07 76.5496 414.07 71.6844C414.07 61.4018 420.161 55.4669 432.341 53.8797L446.73 51.9647C446.73 46.1678 443.59 43.2693 437.31 43.2693C430.995 43.2693 424.991 45.1499 419.298 48.9109V36.5926C421.575 35.4194 424.681 34.3843 428.614 33.4871C432.582 32.59 436.188 32.1414 439.432 32.1414C454.545 32.1414 462.102 39.6808 462.102 54.7596V86.4354ZM446.73 64.9041V61.3328L437.103 62.575C431.789 63.2651 429.132 65.6632 429.132 69.7693C429.132 71.6326 429.77 73.1681 431.047 74.3758C432.358 75.549 434.118 76.1356 436.326 76.1356C439.397 76.1356 441.899 75.0832 443.831 72.9783C445.763 70.839 446.73 68.1476 446.73 64.9041ZM481.202 25.0506C478.442 25.0506 476.182 24.2397 474.422 22.618C472.662 20.9617 471.782 18.9432 471.782 16.5623C471.782 14.1124 472.662 12.1111 474.422 10.5584C476.182 9.00568 478.442 8.22931 481.202 8.22931C483.997 8.22931 486.257 9.00568 487.983 10.5584C489.742 12.1111 490.622 14.1124 490.622 16.5623C490.622 19.0467 489.742 21.0825 487.983 22.6697C486.257 24.257 483.997 25.0506 481.202 25.0506ZM489.277 85.5037C489.277 93.3364 487.362 99.5991 483.531 104.292C479.701 108.985 474.181 111.331 466.969 111.331C464.588 111.331 461.983 110.813 459.154 109.778V96.9422C461.431 98.2189 463.449 98.8572 465.209 98.8572C470.35 98.8572 472.921 94.8201 472.921 86.7459V33.4354H489.277V85.5037ZM551.285 86.4354H534.981V78.3611H534.722C530.685 84.6066 525.285 87.7293 518.522 87.7293C506.238 87.7293 500.096 80.2934 500.096 65.4217V33.4354H516.4V63.9725C516.4 71.4601 519.367 75.2039 525.302 75.2039C528.235 75.2039 530.581 74.186 532.341 72.1502C534.101 70.0799 534.981 67.285 534.981 63.7654V33.4354H551.285V86.4354ZM614.845 86.4354H598.49V79.1375H598.283C594.556 84.8654 589.087 87.7293 581.875 87.7293C575.25 87.7293 569.919 85.4002 565.882 80.742C561.845 76.0493 559.827 69.5106 559.827 61.1258C559.827 52.3615 562.052 45.3397 566.503 40.0604C570.955 34.7811 576.786 32.1414 583.998 32.1414C590.83 32.1414 595.591 34.5913 598.283 39.491H598.49V7.97052H614.845V86.4354ZM598.8 60.66V56.6746C598.8 53.2241 597.8 50.3602 595.798 48.0828C593.797 45.8055 591.192 44.6668 587.983 44.6668C584.36 44.6668 581.53 46.0988 579.495 48.9627C577.459 51.7921 576.441 55.6912 576.441 60.66C576.441 65.3182 577.424 68.9067 579.391 71.4256C581.358 73.9445 584.084 75.2039 587.569 75.2039C590.881 75.2039 593.573 73.8755 595.643 71.2186C597.748 68.5617 598.8 65.0421 598.8 60.66Z" fill="url(#paint0_linear)"/>
<g opacity="0.1">
<path d="M268.292 162.799H277.886C279.253 162.799 280.237 162.499 280.838 161.897C281.494 161.241 281.822 160.093 281.822 158.453V114.255C281.822 113.709 282.096 113.435 282.642 113.435H287.89C288.437 113.435 288.71 113.709 288.71 114.255V158.289C288.984 159.82 289.749 160.968 291.006 161.733C292.318 162.444 293.986 162.799 296.008 162.799H296.91C298.004 162.799 298.824 163.045 299.37 163.537C299.917 163.975 300.19 164.74 300.19 165.833C300.19 167.255 299.917 168.184 299.37 168.621C298.878 169.004 298.058 169.195 296.91 169.195H295.188C293.494 169.195 291.99 168.867 290.678 168.211C289.366 167.501 288.328 166.435 287.562 165.013C286.305 167.801 283.49 169.195 279.116 169.195H245.25C244.704 169.195 244.43 168.922 244.43 168.375V163.619C244.43 163.073 244.704 162.799 245.25 162.799H261.404V125.817C261.404 125.271 261.678 124.997 262.224 124.997H267.472C268.019 124.997 268.292 125.271 268.292 125.817V162.799Z" fill="black"/>
<path d="M294.015 169.195C292.921 169.195 292.101 169.004 291.555 168.621C291.008 168.239 290.735 167.473 290.735 166.325C290.735 164.959 291.008 164.029 291.555 163.537C292.047 163.045 292.867 162.799 294.015 162.799H299.673C301.039 162.799 302.023 162.499 302.625 161.897C303.281 161.241 303.609 160.093 303.609 158.453V136.477C303.609 135.931 303.882 135.657 304.429 135.657H309.677C310.223 135.657 310.497 135.931 310.497 136.477V158.863C310.497 162.417 309.759 165.041 308.283 166.735C306.807 168.375 304.347 169.195 300.903 169.195H294.015ZM309.267 127.539C308.72 127.539 308.447 127.266 308.447 126.719V120.733C308.447 120.187 308.72 119.913 309.267 119.913H314.843C315.389 119.913 315.663 120.187 315.663 120.733V126.719C315.663 127.266 315.389 127.539 314.843 127.539H309.267ZM299.263 127.539C298.716 127.539 298.443 127.266 298.443 126.719V120.733C298.443 120.187 298.716 119.913 299.263 119.913H304.839C305.385 119.913 305.659 120.187 305.659 120.733V126.719C305.659 127.266 305.385 127.539 304.839 127.539H299.263Z" fill="black"/>
<path d="M325.287 185.513C324.74 185.513 324.467 185.24 324.467 184.693V179.937C324.467 179.391 324.74 179.117 325.287 179.117H335.127C336.22 179.117 337.231 178.981 338.161 178.707C339.09 178.489 339.883 178.079 340.539 177.477C341.249 176.931 341.796 176.138 342.179 175.099C342.561 174.115 342.753 172.858 342.753 171.327V169.195H333.979C331.573 169.195 329.387 168.922 327.419 168.375C325.505 167.774 323.865 166.845 322.499 165.587C321.132 164.275 320.093 162.553 319.383 160.421C318.672 158.289 318.317 155.665 318.317 152.549C318.317 149.433 318.727 146.727 319.547 144.431C320.367 142.081 321.487 140.167 322.909 138.691C324.385 137.161 326.079 136.04 327.993 135.329C329.906 134.564 331.956 134.181 334.143 134.181C339.008 134.181 342.807 135.603 345.541 138.445C348.274 141.233 349.641 145.771 349.641 152.057V171.163C349.641 173.733 349.285 175.919 348.575 177.723C347.919 179.527 346.962 181.003 345.705 182.151C344.502 183.299 343.026 184.147 341.277 184.693C339.527 185.24 337.587 185.513 335.455 185.513H325.287ZM334.143 140.577C331.355 140.577 329.168 141.671 327.583 143.857C325.997 146.044 325.205 148.941 325.205 152.549C325.205 156.431 325.97 159.109 327.501 160.585C329.086 162.061 331.409 162.799 334.471 162.799H342.753V152.057C342.753 148.449 342.069 145.634 340.703 143.611C339.391 141.589 337.204 140.577 334.143 140.577Z" fill="black"/>
<path d="M357.837 114.255C357.837 113.709 358.11 113.435 358.657 113.435H363.905C364.451 113.435 364.725 113.709 364.725 114.255V158.453C364.725 160.093 365.025 161.241 365.627 161.897C366.283 162.499 367.294 162.799 368.661 162.799H372.269C374.455 162.799 375.549 163.893 375.549 166.079C375.549 167.446 375.275 168.321 374.729 168.703C374.237 169.031 373.417 169.195 372.269 169.195H367.431C363.987 169.195 361.527 168.375 360.051 166.735C358.575 165.041 357.837 162.417 357.837 158.863V114.255Z" fill="black"/>
<path d="M388.595 140.577C386.736 140.577 385.014 140.96 383.429 141.725C381.898 142.491 380.531 143.529 379.329 144.841C379.001 145.224 378.618 145.251 378.181 144.923L374.573 141.971C374.081 141.589 373.999 141.206 374.327 140.823C375.857 138.91 377.743 137.325 379.985 136.067C382.281 134.81 385.069 134.181 388.349 134.181C392.121 134.181 395.209 134.783 397.615 135.985C400.02 137.133 401.906 138.664 403.273 140.577C404.694 142.491 405.678 144.705 406.225 147.219C406.771 149.734 407.045 152.331 407.045 155.009C407.045 157.743 406.799 160.011 406.307 161.815C405.869 163.619 405.159 165.068 404.175 166.161C403.245 167.255 402.015 168.047 400.485 168.539C399.009 168.977 397.259 169.195 395.237 169.195H369.407C367.22 169.195 366.127 168.102 366.127 165.915C366.127 164.549 366.4 163.701 366.947 163.373C367.439 162.991 368.259 162.799 369.407 162.799H392.695C394.225 162.799 395.455 162.69 396.385 162.471C397.314 162.198 398.025 161.761 398.517 161.159C399.009 160.558 399.337 159.765 399.501 158.781C399.665 157.743 399.747 156.485 399.747 155.009C399.747 152.877 399.555 150.937 399.173 149.187C398.79 147.383 398.161 145.853 397.287 144.595C396.467 143.283 395.346 142.299 393.925 141.643C392.503 140.933 390.727 140.577 388.595 140.577ZM387.119 184.283C386.572 184.283 386.299 184.01 386.299 183.463V177.477C386.299 176.931 386.572 176.657 387.119 176.657H392.695C393.241 176.657 393.515 176.931 393.515 177.477V183.463C393.515 184.01 393.241 184.283 392.695 184.283H387.119Z" fill="black"/>
<path d="M444.164 155.173C444.164 157.907 443.918 160.175 443.426 161.979C442.988 163.783 442.278 165.232 441.294 166.325C440.364 167.364 439.162 168.102 437.686 168.539C436.21 168.977 434.433 169.195 432.356 169.195H414.152C413.605 169.195 413.332 168.922 413.332 168.375V163.619C413.332 163.073 413.605 162.799 414.152 162.799H429.814C431.344 162.799 432.574 162.69 433.504 162.471C434.433 162.198 435.144 161.788 435.636 161.241C436.128 160.64 436.456 159.875 436.62 158.945C436.784 158.016 436.866 156.841 436.866 155.419V148.859C436.866 143.338 433.75 140.577 427.518 140.577H418.006C417.459 140.577 417.186 140.304 417.186 139.757V135.001C417.186 134.455 417.459 134.181 418.006 134.181H430.06C434.214 134.181 437.604 135.357 440.228 137.707C442.852 140.058 444.164 143.748 444.164 148.777V155.173Z" fill="black"/>
</g>
<mask id="mask0" mask-type="alpha" maskUnits="userSpaceOnUse" x="-192" y="-86" width="562" height="333">
<path d="M191.145 -29.8698L95.0793 -85.3284L-0.98617 -29.8698L95.0793 25.5888L191.145 -29.8698ZM95.0793 11.619L23.261 -29.8418L95.0793 -71.3025L166.898 -29.8418L95.0793 11.619Z" fill="url(#paint1_linear)"/>
<path d="M144.108 -29.8698L95.0794 -58.1742L46.0505 -29.8698L95.0793 -1.56544L144.108 -29.8698Z" fill="url(#paint2_linear)"/>
<path d="M-191.902 80.3461L-95.8369 135.805L0.228652 80.3461L-95.8369 24.8875L-191.902 80.3461ZM-95.7883 38.8854L-23.97 80.3461L-95.7883 121.807L-167.607 80.3462L-95.7883 38.8854Z" fill="url(#paint3_linear)"/>
<path d="M-46.808 80.3461L-95.8369 52.0418L-144.866 80.3461L-95.8369 108.651L-46.808 80.3461Z" fill="url(#paint4_linear)"/>
<path d="M-0.305872 190.955L95.7596 246.413L191.825 190.955L95.7597 135.496L-0.305872 190.955ZM95.7596 149.466L167.578 190.927L95.7596 232.387L23.9413 190.927L95.7596 149.466Z" fill="url(#paint5_linear)"/>
<path d="M144.788 190.955L95.7596 162.65L46.7307 190.955L95.7596 219.259L144.788 190.955Z" fill="url(#paint6_linear)"/>
<path d="M234.003 82.8427L176.081 49.4049L216.947 25.8132L178.074 3.37171L165.926 10.3847L192.7 25.8413L151.834 49.4329L221.855 89.8557L234.003 82.8427Z" fill="url(#paint7_linear)"/>
<path d="M205.431 0.145737L193.331 -6.8392L181.961 -0.275043L194.06 6.70989L205.431 0.145737Z" fill="url(#paint8_linear)"/>
<path d="M222.486 -9.70048L210.387 -16.6854L201.446 -11.5239L213.546 -4.53894L222.486 -9.70048Z" fill="url(#paint9_linear)"/>
<path d="M170.834 20.1187L158.734 13.1338L147.364 19.6979L159.463 26.6828L170.834 20.1187Z" fill="url(#paint10_linear)"/>
<path d="M-28.6347 161.023L-40.734 154.038L-52.1045 160.603L-40.0052 167.588L-28.6347 161.023Z" fill="url(#paint11_linear)"/>
<path d="M229.289 60.0365L217.919 53.4724L205.82 60.4573L217.19 67.0215L229.289 60.0365Z" fill="url(#paint12_linear)"/>
<path d="M250.912 72.5196L239.542 65.9555L227.443 72.9404L238.813 79.5046L250.912 72.5196Z" fill="url(#paint13_linear)"/>
<path d="M25.3018 17.2854L-27.1285 -12.9826L-39.2278 -5.99764L25.3018 31.2553L48.0427 18.127L88.5681 41.5223L100.716 34.5093L48.0913 4.12907L25.3018 17.2854Z" fill="url(#paint14_linear)"/>
<path d="M47.2652 71.1451L31.7159 62.1685L45.1273 54.4262L15.1463 37.1181L19.8111 34.4252L7.71174 27.4402L-9.10093 37.1462L20.8801 54.4542L7.51739 62.1685L35.166 78.13L47.2652 71.1451Z" fill="url(#paint15_linear)"/>
<path d="M-13.4256 12.8813L-38.1587 -1.39712L-50.258 5.58781L-25.5249 19.8662L-13.4256 12.8813Z" fill="url(#paint16_linear)"/>
<path d="M42.8434 1.09949L30.5012 -6.02569L18.4019 0.959249L30.7441 8.08442L42.8434 1.09949Z" fill="url(#paint17_linear)"/>
<path d="M-16.3897 28.2257L-28.7806 21.0725L-40.8798 28.0574L-28.489 35.2106L-16.3897 28.2257Z" fill="url(#paint18_linear)"/>
<path d="M138.034 82.3659L113.301 68.0874L101.202 75.0724L125.935 89.3508L138.034 82.3659Z" fill="url(#paint19_linear)"/>
<path d="M203.05 136.113L178.317 121.835L166.217 128.82L190.951 143.098L203.05 136.113Z" fill="url(#paint20_linear)"/>
<path d="M158.637 94.2599L146.246 87.1067L134.147 94.0916L146.538 101.245L158.637 94.2599Z" fill="url(#paint21_linear)"/>
<path d="M238.23 117.431L226.131 110.446L200.329 125.341L212.428 132.326L238.23 117.431Z" fill="url(#paint22_linear)"/>
<path d="M63.6406 82.0012L51.5413 75.0163L26.7596 89.3228L38.8589 96.3077L63.6406 82.0012Z" fill="url(#paint23_linear)"/>
<path d="M123.943 47.1888L111.843 40.2039L65.4385 66.9934L77.5378 73.9783L123.943 47.1888Z" fill="url(#paint24_linear)"/>
<path d="M231.816 17.8465L258.882 33.4714L267.725 28.366L283.469 37.4548L295.617 30.4418L237.064 -3.36077L224.916 3.65221L240.66 12.741L231.816 17.8465Z" fill="url(#paint25_linear)"/>
<path d="M243.381 33.78L231.281 26.795L203.827 42.6444L215.927 49.6293L243.381 33.78Z" fill="url(#paint26_linear)"/>
<path d="M249.406 36.8096L237.258 43.8225L266.365 60.6256L256.695 66.208L268.843 73.2209L305.675 51.9576L293.527 44.9446L278.512 53.6127L249.406 36.8096Z" fill="url(#paint27_linear)"/>
<path d="M317.92 118.16L369.136 88.5934L356.988 81.5804L340.272 91.2303L309.903 73.6978L297.803 80.6828L310.729 88.1446L299.698 94.5123L290.174 89.0142L284.829 92.0999L275.743 86.8542L289.786 78.7472L277.638 71.7342L257.57 83.3196L258.493 83.8526L252.419 87.3591L272.73 99.0848L266.073 102.928L275.597 108.426L270.932 111.119L240.708 93.6708L228.56 100.684L258.784 118.132L198.579 152.888L158.637 129.83L146.538 136.815L186.48 159.873L180.066 163.576L159.706 151.822L147.607 158.807L180.066 177.546L258.833 132.074L264.178 135.16L248.143 144.417L260.291 151.43L297.123 130.166L284.975 123.153L276.326 128.147L270.981 125.061L322.828 95.1295L328.173 98.2152L305.772 111.147L317.92 118.16Z" fill="url(#paint28_linear)"/>
<path d="M332.644 73.4734L343.674 79.8412L355.822 72.8282L344.791 66.4605L349.602 63.6833L337.503 56.6984L315.782 69.2376L327.882 76.2225L332.644 73.4734Z" fill="url(#paint29_linear)"/>
<path d="M312.186 65.7591L300.087 58.7742L287.696 65.9275L299.796 72.9124L312.186 65.7591Z" fill="url(#paint30_linear)"/>
<path d="M331.915 54.3701L319.815 47.3852L307.424 54.5384L319.524 61.5233L331.915 54.3701Z" fill="url(#paint31_linear)"/>
<path d="M88.811 47.1607L59.1702 30.049L47.0709 37.034L76.7117 54.1456L88.811 47.1607Z" fill="url(#paint32_linear)"/>
<path d="M75.0596 56.2776L62.9604 49.2927L51.8815 55.6885L63.9807 62.6734L75.0596 56.2776Z" fill="url(#paint33_linear)"/>
<path d="M-13.6199 107.472L-25.7192 100.487L-36.7495 106.855L-24.6503 113.84L-13.6199 107.472Z" fill="url(#paint34_linear)"/>
<path d="M128.51 134.43L116.411 127.445L105.332 133.841L117.431 140.826L128.51 134.43Z" fill="url(#paint35_linear)"/>
<path d="M142.408 65.7591L130.308 58.7742L119.278 65.142L131.377 72.1269L142.408 65.7591Z" fill="url(#paint36_linear)"/>
<path d="M63.0089 147.951L50.9096 140.966L39.8794 147.334L51.9787 154.319L63.0089 147.951Z" fill="url(#paint37_linear)"/>
<path d="M38.5674 150.448L26.4681 143.463L15.4377 149.831L27.537 156.816L38.5674 150.448Z" fill="url(#paint38_linear)"/>
<path d="M33.3195 165.091L21.2202 158.106L10.1899 164.474L22.2892 171.459L33.3195 165.091Z" fill="url(#paint39_linear)"/>
<path d="M150.668 147.222L138.569 140.237L127.49 146.633L139.589 153.618L150.668 147.222Z" fill="url(#paint40_linear)"/>
<path d="M16.2639 90.2204L4.16458 83.2355L-6.86574 89.6033L5.23354 96.5882L16.2639 90.2204Z" fill="url(#paint41_linear)"/>
<path d="M-10.7531 129.437L-22.8524 122.452L-33.8826 128.82L-21.7833 135.805L-10.7531 129.437Z" fill="url(#paint42_linear)"/>
<path d="M60.9681 64.4126L48.8688 57.4277L37.8385 63.7955L49.9378 70.7804L60.9681 64.4126Z" fill="url(#paint43_linear)"/>
<path d="M-0.20875 74.3711L11.9391 67.3581L-12.6482 53.1638L-4.33903 48.367L-16.4383 41.382L-21.4918 44.2994L-73.9221 14.0314L-86.07 21.0444L-33.6397 51.3124L-36.8954 53.1919L-0.20875 74.3711Z" fill="url(#paint44_linear)"/>
<path d="M6.25396 0.117671L23.6983 -9.95297L-4.339 -26.1389L-16.4869 -19.1259L-0.548864 -9.92492L-5.84535 -6.86726L6.25396 0.117671Z" fill="url(#paint45_linear)"/>
<path d="M203.633 92.0157L163.545 68.8729L151.446 75.8578L179.434 92.0157L162.379 101.862L174.478 108.847L203.633 92.0157Z" fill="url(#paint46_linear)"/>
<path d="M159.269 116.673L147.169 109.688L134.438 117.038L124.526 111.315L112.427 118.3L134.438 131.008L159.269 116.673Z" fill="url(#paint47_linear)"/>
<path d="M65.2441 121.414L77.3434 114.429L71.0751 110.811L98.9667 94.7087L105.235 98.3274L117.383 91.3144L99.0153 80.7108L78.9955 92.2682L72.2899 88.397L60.1906 95.3819L66.8963 99.2531L46.8765 110.811L65.2441 121.414Z" fill="url(#paint48_linear)"/>
<path d="M31.1815 105.228L19.0822 98.2432L-12.8911 116.701L5.52511 127.333L-33.2996 149.747L-21.2002 156.732L29.7237 127.333L11.3075 116.701L31.1815 105.228Z" fill="url(#paint49_linear)"/>
<path d="M-36.9439 143.828L-63.815 128.315L-75.9143 135.3L-49.0432 150.813L-36.9439 143.828Z" fill="url(#paint50_linear)"/>
<path d="M131.62 43.8787L143.72 50.8636L165.829 38.1L130.162 17.5099L118.063 24.4948L141.63 38.1L131.62 43.8787Z" fill="url(#paint51_linear)"/>
<path d="M73.7477 132.663L42.2117 114.457L30.1124 121.442L61.6484 139.648L73.7477 132.663Z" fill="url(#paint52_linear)"/>
</mask>
<g mask="url(#mask0)">
<circle cx="95.4637" cy="95.0539" r="93.8563" fill="#F2F2F2"/>
</g>
<circle opacity="0.5" r="26.5738" transform="matrix(0.866044 -0.499967 0.866044 0.499967 95.4193 110.521)" fill="url(#paint53_linear)"/>
<circle opacity="0.2" r="44.9193" transform="matrix(0.866044 -0.499967 0.866044 0.499967 95.4196 110.521)" fill="url(#paint54_linear)"/>
<path d="M95.4195 19.2065C76.9745 19.2065 62.0564 34.1246 62.0564 52.5696C62.0564 72.4445 83.1228 99.85 91.7973 110.288C93.7037 112.576 97.183 112.576 99.0895 110.288C107.716 99.85 128.783 72.4445 128.783 52.5696C128.783 34.1246 113.865 19.2065 95.4195 19.2065ZM95.4195 64.485C92.2594 64.485 89.2286 63.2297 86.9941 60.9951C84.7595 58.7605 83.5041 55.7298 83.5041 52.5696C83.5041 49.4095 84.7595 46.3787 86.9941 44.1442C89.2286 41.9096 92.2594 40.6542 95.4195 40.6542C98.5797 40.6542 101.61 41.9096 103.845 44.1442C106.08 46.3787 107.335 49.4095 107.335 52.5696C107.335 55.7298 106.08 58.7605 103.845 60.9951C101.61 63.2297 98.5797 64.485 95.4195 64.485Z" fill="url(#paint55_linear)"/>
</g>
<defs>
<linearGradient id="paint0_linear" x1="315.405" y1="132.447" x2="359.476" y2="-73.5747" gradientUnits="userSpaceOnUse">
<stop stop-color="#EE0979"/>
<stop offset="1" stop-color="#FF6A00"/>
</linearGradient>
<linearGradient id="paint1_linear" x1="-170.665" y1="137.284" x2="288.676" y2="-69.6239" gradientUnits="userSpaceOnUse">
<stop stop-color="#EE0979"/>
<stop offset="1" stop-color="#FF6A00"/>
</linearGradient>
<linearGradient id="paint2_linear" x1="-170.665" y1="137.284" x2="288.676" y2="-69.6239" gradientUnits="userSpaceOnUse">
<stop stop-color="#EE0979"/>
<stop offset="1" stop-color="#FF6A00"/>
</linearGradient>
<linearGradient id="paint3_linear" x1="-170.665" y1="137.284" x2="288.676" y2="-69.6239" gradientUnits="userSpaceOnUse">
<stop stop-color="#EE0979"/>
<stop offset="1" stop-color="#FF6A00"/>
</linearGradient>
<linearGradient id="paint4_linear" x1="-170.665" y1="137.284" x2="288.676" y2="-69.6239" gradientUnits="userSpaceOnUse">
<stop stop-color="#EE0979"/>
<stop offset="1" stop-color="#FF6A00"/>
</linearGradient>
<linearGradient id="paint5_linear" x1="-170.665" y1="137.284" x2="288.676" y2="-69.6239" gradientUnits="userSpaceOnUse">
<stop stop-color="#EE0979"/>
<stop offset="1" stop-color="#FF6A00"/>
</linearGradient>
<linearGradient id="paint6_linear" x1="-170.665" y1="137.284" x2="288.676" y2="-69.6239" gradientUnits="userSpaceOnUse">
<stop stop-color="#EE0979"/>
<stop offset="1" stop-color="#FF6A00"/>
</linearGradient>
<linearGradient id="paint7_linear" x1="-170.665" y1="137.284" x2="288.676" y2="-69.6239" gradientUnits="userSpaceOnUse">
<stop stop-color="#EE0979"/>
<stop offset="1" stop-color="#FF6A00"/>
</linearGradient>
<linearGradient id="paint8_linear" x1="-170.665" y1="137.284" x2="288.676" y2="-69.6239" gradientUnits="userSpaceOnUse">
<stop stop-color="#EE0979"/>
<stop offset="1" stop-color="#FF6A00"/>
</linearGradient>
<linearGradient id="paint9_linear" x1="-170.665" y1="137.284" x2="288.676" y2="-69.6239" gradientUnits="userSpaceOnUse">
<stop stop-color="#EE0979"/>
<stop offset="1" stop-color="#FF6A00"/>
</linearGradient>
<linearGradient id="paint10_linear" x1="-170.665" y1="137.284" x2="288.676" y2="-69.6239" gradientUnits="userSpaceOnUse">
<stop stop-color="#EE0979"/>
<stop offset="1" stop-color="#FF6A00"/>
</linearGradient>
<linearGradient id="paint11_linear" x1="-170.665" y1="137.284" x2="288.676" y2="-69.6239" gradientUnits="userSpaceOnUse">
<stop stop-color="#EE0979"/>
<stop offset="1" stop-color="#FF6A00"/>
</linearGradient>
<linearGradient id="paint12_linear" x1="-170.665" y1="137.284" x2="288.676" y2="-69.6239" gradientUnits="userSpaceOnUse">
<stop stop-color="#EE0979"/>
<stop offset="1" stop-color="#FF6A00"/>
</linearGradient>
<linearGradient id="paint13_linear" x1="-170.665" y1="137.284" x2="288.676" y2="-69.6239" gradientUnits="userSpaceOnUse">
<stop stop-color="#EE0979"/>
<stop offset="1" stop-color="#FF6A00"/>
</linearGradient>
<linearGradient id="paint14_linear" x1="-170.665" y1="137.284" x2="288.676" y2="-69.6239" gradientUnits="userSpaceOnUse">
<stop stop-color="#EE0979"/>
<stop offset="1" stop-color="#FF6A00"/>
</linearGradient>
<linearGradient id="paint15_linear" x1="-170.665" y1="137.284" x2="288.676" y2="-69.6239" gradientUnits="userSpaceOnUse">
<stop stop-color="#EE0979"/>
<stop offset="1" stop-color="#FF6A00"/>
</linearGradient>
<linearGradient id="paint16_linear" x1="-170.665" y1="137.284" x2="288.676" y2="-69.6239" gradientUnits="userSpaceOnUse">
<stop stop-color="#EE0979"/>
<stop offset="1" stop-color="#FF6A00"/>
</linearGradient>
<linearGradient id="paint17_linear" x1="-170.665" y1="137.284" x2="288.676" y2="-69.6239" gradientUnits="userSpaceOnUse">
<stop stop-color="#EE0979"/>
<stop offset="1" stop-color="#FF6A00"/>
</linearGradient>
<linearGradient id="paint18_linear" x1="-170.665" y1="137.284" x2="288.676" y2="-69.6239" gradientUnits="userSpaceOnUse">
<stop stop-color="#EE0979"/>
<stop offset="1" stop-color="#FF6A00"/>
</linearGradient>
<linearGradient id="paint19_linear" x1="-170.665" y1="137.284" x2="288.676" y2="-69.6239" gradientUnits="userSpaceOnUse">
<stop stop-color="#EE0979"/>
<stop offset="1" stop-color="#FF6A00"/>
</linearGradient>
<linearGradient id="paint20_linear" x1="-170.665" y1="137.284" x2="288.676" y2="-69.6239" gradientUnits="userSpaceOnUse">
<stop stop-color="#EE0979"/>
<stop offset="1" stop-color="#FF6A00"/>
</linearGradient>
<linearGradient id="paint21_linear" x1="-170.665" y1="137.284" x2="288.676" y2="-69.6239" gradientUnits="userSpaceOnUse">
<stop stop-color="#EE0979"/>
<stop offset="1" stop-color="#FF6A00"/>
</linearGradient>
<linearGradient id="paint22_linear" x1="-170.665" y1="137.284" x2="288.676" y2="-69.6239" gradientUnits="userSpaceOnUse">
<stop stop-color="#EE0979"/>
<stop offset="1" stop-color="#FF6A00"/>
</linearGradient>
<linearGradient id="paint23_linear" x1="-170.665" y1="137.284" x2="288.676" y2="-69.6239" gradientUnits="userSpaceOnUse">
<stop stop-color="#EE0979"/>
<stop offset="1" stop-color="#FF6A00"/>
</linearGradient>
<linearGradient id="paint24_linear" x1="-170.665" y1="137.284" x2="288.676" y2="-69.6239" gradientUnits="userSpaceOnUse">
<stop stop-color="#EE0979"/>
<stop offset="1" stop-color="#FF6A00"/>
</linearGradient>
<linearGradient id="paint25_linear" x1="-170.665" y1="137.284" x2="288.676" y2="-69.6239" gradientUnits="userSpaceOnUse">
<stop stop-color="#EE0979"/>
<stop offset="1" stop-color="#FF6A00"/>
</linearGradient>
<linearGradient id="paint26_linear" x1="-170.665" y1="137.284" x2="288.676" y2="-69.6239" gradientUnits="userSpaceOnUse">
<stop stop-color="#EE0979"/>
<stop offset="1" stop-color="#FF6A00"/>
</linearGradient>
<linearGradient id="paint27_linear" x1="-170.665" y1="137.284" x2="288.676" y2="-69.6239" gradientUnits="userSpaceOnUse">
<stop stop-color="#EE0979"/>
<stop offset="1" stop-color="#FF6A00"/>
</linearGradient>
<linearGradient id="paint28_linear" x1="-170.665" y1="137.284" x2="288.676" y2="-69.6239" gradientUnits="userSpaceOnUse">
<stop stop-color="#EE0979"/>
<stop offset="1" stop-color="#FF6A00"/>
</linearGradient>
<linearGradient id="paint29_linear" x1="-170.665" y1="137.284" x2="288.676" y2="-69.6239" gradientUnits="userSpaceOnUse">
<stop stop-color="#EE0979"/>
<stop offset="1" stop-color="#FF6A00"/>
</linearGradient>
<linearGradient id="paint30_linear" x1="-170.665" y1="137.284" x2="288.676" y2="-69.6239" gradientUnits="userSpaceOnUse">
<stop stop-color="#EE0979"/>
<stop offset="1" stop-color="#FF6A00"/>
</linearGradient>
<linearGradient id="paint31_linear" x1="-170.665" y1="137.284" x2="288.676" y2="-69.6239" gradientUnits="userSpaceOnUse">
<stop stop-color="#EE0979"/>
<stop offset="1" stop-color="#FF6A00"/>
</linearGradient>
<linearGradient id="paint32_linear" x1="-170.665" y1="137.284" x2="288.676" y2="-69.6239" gradientUnits="userSpaceOnUse">
<stop stop-color="#EE0979"/>
<stop offset="1" stop-color="#FF6A00"/>
</linearGradient>
<linearGradient id="paint33_linear" x1="-170.665" y1="137.284" x2="288.676" y2="-69.6239" gradientUnits="userSpaceOnUse">
<stop stop-color="#EE0979"/>
<stop offset="1" stop-color="#FF6A00"/>
</linearGradient>
<linearGradient id="paint34_linear" x1="-170.665" y1="137.284" x2="288.676" y2="-69.6239" gradientUnits="userSpaceOnUse">
<stop stop-color="#EE0979"/>
<stop offset="1" stop-color="#FF6A00"/>
</linearGradient>
<linearGradient id="paint35_linear" x1="-170.665" y1="137.284" x2="288.676" y2="-69.6239" gradientUnits="userSpaceOnUse">
<stop stop-color="#EE0979"/>
<stop offset="1" stop-color="#FF6A00"/>
</linearGradient>
<linearGradient id="paint36_linear" x1="-170.665" y1="137.284" x2="288.676" y2="-69.6239" gradientUnits="userSpaceOnUse">
<stop stop-color="#EE0979"/>
<stop offset="1" stop-color="#FF6A00"/>
</linearGradient>
<linearGradient id="paint37_linear" x1="-170.665" y1="137.284" x2="288.676" y2="-69.6239" gradientUnits="userSpaceOnUse">
<stop stop-color="#EE0979"/>
<stop offset="1" stop-color="#FF6A00"/>
</linearGradient>
<linearGradient id="paint38_linear" x1="-170.665" y1="137.284" x2="288.676" y2="-69.6239" gradientUnits="userSpaceOnUse">
<stop stop-color="#EE0979"/>
<stop offset="1" stop-color="#FF6A00"/>
</linearGradient>
<linearGradient id="paint39_linear" x1="-170.665" y1="137.284" x2="288.676" y2="-69.6239" gradientUnits="userSpaceOnUse">
<stop stop-color="#EE0979"/>
<stop offset="1" stop-color="#FF6A00"/>
</linearGradient>
<linearGradient id="paint40_linear" x1="-170.665" y1="137.284" x2="288.676" y2="-69.6239" gradientUnits="userSpaceOnUse">
<stop stop-color="#EE0979"/>
<stop offset="1" stop-color="#FF6A00"/>
</linearGradient>
<linearGradient id="paint41_linear" x1="-170.665" y1="137.284" x2="288.676" y2="-69.6239" gradientUnits="userSpaceOnUse">
<stop stop-color="#EE0979"/>
<stop offset="1" stop-color="#FF6A00"/>
</linearGradient>
<linearGradient id="paint42_linear" x1="-170.665" y1="137.284" x2="288.676" y2="-69.6239" gradientUnits="userSpaceOnUse">
<stop stop-color="#EE0979"/>
<stop offset="1" stop-color="#FF6A00"/>
</linearGradient>
<linearGradient id="paint43_linear" x1="-170.665" y1="137.284" x2="288.676" y2="-69.6239" gradientUnits="userSpaceOnUse">
<stop stop-color="#EE0979"/>
<stop offset="1" stop-color="#FF6A00"/>
</linearGradient>
<linearGradient id="paint44_linear" x1="-170.665" y1="137.284" x2="288.676" y2="-69.6239" gradientUnits="userSpaceOnUse">
<stop stop-color="#EE0979"/>
<stop offset="1" stop-color="#FF6A00"/>
</linearGradient>
<linearGradient id="paint45_linear" x1="-170.665" y1="137.284" x2="288.676" y2="-69.6239" gradientUnits="userSpaceOnUse">
<stop stop-color="#EE0979"/>
<stop offset="1" stop-color="#FF6A00"/>
</linearGradient>
<linearGradient id="paint46_linear" x1="-170.665" y1="137.284" x2="288.676" y2="-69.6239" gradientUnits="userSpaceOnUse">
<stop stop-color="#EE0979"/>
<stop offset="1" stop-color="#FF6A00"/>
</linearGradient>
<linearGradient id="paint47_linear" x1="-170.665" y1="137.284" x2="288.676" y2="-69.6239" gradientUnits="userSpaceOnUse">
<stop stop-color="#EE0979"/>
<stop offset="1" stop-color="#FF6A00"/>
</linearGradient>
<linearGradient id="paint48_linear" x1="-170.665" y1="137.284" x2="288.676" y2="-69.6239" gradientUnits="userSpaceOnUse">
<stop stop-color="#EE0979"/>
<stop offset="1" stop-color="#FF6A00"/>
</linearGradient>
<linearGradient id="paint49_linear" x1="-170.665" y1="137.284" x2="288.676" y2="-69.6239" gradientUnits="userSpaceOnUse">
<stop stop-color="#EE0979"/>
<stop offset="1" stop-color="#FF6A00"/>
</linearGradient>
<linearGradient id="paint50_linear" x1="-170.665" y1="137.284" x2="288.676" y2="-69.6239" gradientUnits="userSpaceOnUse">
<stop stop-color="#EE0979"/>
<stop offset="1" stop-color="#FF6A00"/>
</linearGradient>
<linearGradient id="paint51_linear" x1="-170.665" y1="137.284" x2="288.676" y2="-69.6239" gradientUnits="userSpaceOnUse">
<stop stop-color="#EE0979"/>
<stop offset="1" stop-color="#FF6A00"/>
</linearGradient>
<linearGradient id="paint52_linear" x1="-170.665" y1="137.284" x2="288.676" y2="-69.6239" gradientUnits="userSpaceOnUse">
<stop stop-color="#EE0979"/>
<stop offset="1" stop-color="#FF6A00"/>
</linearGradient>
<linearGradient id="paint53_linear" x1="11.073" y1="60.3137" x2="46.575" y2="0.00175298" gradientUnits="userSpaceOnUse">
<stop stop-color="#EE0979"/>
<stop offset="1" stop-color="#FF6A00"/>
</linearGradient>
<linearGradient id="paint54_linear" x1="18.7173" y1="101.952" x2="78.7285" y2="0.00296316" gradientUnits="userSpaceOnUse">
<stop stop-color="#EE0979"/>
<stop offset="1" stop-color="#FF6A00"/>
</linearGradient>
<linearGradient id="paint55_linear" x1="75.9584" y1="124.516" x2="145.459" y2="39.6168" gradientUnits="userSpaceOnUse">
<stop stop-color="#EE0979"/>
<stop offset="1" stop-color="#FF6A00"/>
</linearGradient>
<clipPath id="clip0">
<rect width="623" height="189" fill="white"/>
</clipPath>
</defs>
</svg>
