<svg width="196" height="242" viewBox="0 0 196 242" fill="none" xmlns="http://www.w3.org/2000/svg">
<path d="M19.2961 190.738C18.0477 191.416 16.1663 191.755 13.6517 191.755C7.69522 191.755 4.71698 188.577 4.71698 182.222V169.337H0.276367V162.936H4.71698V156.865L13.1434 154.392V162.936H19.2961V169.337H13.1434V180.711C13.1434 183.641 14.2759 185.106 16.5408 185.106C17.4325 185.106 18.3509 184.841 19.2961 184.31V190.738Z" fill="white"/>
<path d="M45.7803 191.068H37.7819V187.03H37.6749C35.838 190.18 33.1183 191.755 29.5159 191.755C26.8587 191.755 24.7632 190.986 23.2295 189.447C21.7136 187.89 20.9557 185.821 20.9557 183.238C20.9557 177.781 24.1034 174.63 30.3987 173.788L37.8354 172.771C37.8354 169.695 36.2125 168.156 32.9668 168.156C29.7032 168.156 26.6001 169.154 23.6575 171.151V164.612C24.8346 163.989 26.4396 163.44 28.4726 162.964C30.5235 162.488 32.3872 162.25 34.0635 162.25C41.8747 162.25 45.7803 166.251 45.7803 174.255V191.068ZM37.8354 179.639V177.744L32.8598 178.403C30.1134 178.77 28.7402 180.042 28.7402 182.222C28.7402 183.211 29.0701 184.026 29.7299 184.667C30.4076 185.29 31.3171 185.601 32.4585 185.601C34.0457 185.601 35.3387 185.042 36.3373 183.925C37.336 182.79 37.8354 181.361 37.8354 179.639Z" fill="white"/>
<path d="M91.0435 162.936L83.1521 191.068H74.2709L70.2315 174.585C69.964 173.486 69.8124 172.286 69.7768 170.986H69.6162C69.4914 172.414 69.3131 173.577 69.0812 174.475L64.7476 191.068H55.9734L48.2425 162.936H56.8562L60.628 181.288C60.8064 182.149 60.9401 183.193 61.0293 184.42H61.1898C61.279 183.138 61.4395 182.057 61.6713 181.178L66.3794 162.936H74.4314L78.658 181.288C78.765 181.746 78.8898 182.808 79.0325 184.475H79.2197C79.3089 183.412 79.4516 182.35 79.6478 181.288L83.2056 162.936H91.0435Z" fill="white"/>
<path d="M116.779 191.068H108.78V187.03H108.673C106.836 190.18 104.117 191.755 100.514 191.755C97.8571 191.755 95.7617 190.986 94.2279 189.447C92.7121 187.89 91.9541 185.821 91.9541 183.238C91.9541 177.781 95.1018 174.63 101.397 173.788L108.834 172.771C108.834 169.695 107.211 168.156 103.965 168.156C100.702 168.156 97.5985 169.154 94.656 171.151V164.612C95.833 163.989 97.438 163.44 99.4711 162.964C101.522 162.488 103.386 162.25 105.062 162.25C112.873 162.25 116.779 166.251 116.779 174.255V191.068ZM108.834 179.639V177.744L103.858 178.403C101.112 178.77 99.7386 180.042 99.7386 182.222C99.7386 183.211 100.069 184.026 100.728 184.667C101.406 185.29 102.316 185.601 103.457 185.601C105.044 185.601 106.337 185.042 107.336 183.925C108.334 182.79 108.834 181.361 108.834 179.639Z" fill="white"/>
<path d="M126.651 158.486C125.224 158.486 124.056 158.055 123.146 157.195C122.237 156.315 121.782 155.244 121.782 153.98C121.782 152.68 122.237 151.618 123.146 150.794C124.056 149.969 125.224 149.557 126.651 149.557C128.095 149.557 129.263 149.969 130.155 150.794C131.065 151.618 131.519 152.68 131.519 153.98C131.519 155.299 131.065 156.38 130.155 157.222C129.263 158.065 128.095 158.486 126.651 158.486ZM130.824 190.573C130.824 194.731 129.834 198.055 127.855 200.546C125.875 203.037 123.022 204.282 119.294 204.282C118.064 204.282 116.717 204.007 115.255 203.458V196.645C116.432 197.323 117.475 197.661 118.385 197.661C121.042 197.661 122.371 195.519 122.371 191.233V162.936H130.824V190.573Z" fill="white"/>
<path d="M162.872 191.068H154.446V186.782H154.312C152.226 190.097 149.435 191.755 145.939 191.755C139.59 191.755 136.416 187.808 136.416 179.914V162.936H144.842V179.145C144.842 183.119 146.376 185.106 149.443 185.106C150.959 185.106 152.172 184.566 153.082 183.486C153.991 182.387 154.446 180.903 154.446 179.035V162.936H162.872V191.068Z" fill="white"/>
<path d="M195.723 191.068H187.27V187.194H187.163C185.237 190.235 182.41 191.755 178.683 191.755C175.259 191.755 172.504 190.519 170.417 188.046C168.331 185.555 167.287 182.085 167.287 177.634C167.287 172.982 168.438 169.255 170.738 166.453C173.039 163.651 176.053 162.25 179.78 162.25C183.311 162.25 185.772 163.55 187.163 166.151H187.27V149.42H195.723V191.068ZM187.43 177.387V175.271C187.43 173.44 186.913 171.92 185.879 170.711C184.845 169.502 183.498 168.898 181.84 168.898C179.967 168.898 178.505 169.658 177.452 171.178C176.4 172.68 175.874 174.749 175.874 177.387C175.874 179.859 176.382 181.764 177.399 183.101C178.416 184.438 179.824 185.106 181.626 185.106C183.338 185.106 184.729 184.401 185.799 182.991C186.887 181.581 187.43 179.713 187.43 177.387Z" fill="white"/>
<g opacity="0.25">
<path d="M58.8548 230.114H63.7959C64.4998 230.114 65.0066 229.957 65.3163 229.642C65.6541 229.299 65.8231 228.698 65.8231 227.84V204.711C65.8231 204.425 65.9638 204.282 66.2454 204.282H68.9482C69.2298 204.282 69.3705 204.425 69.3705 204.711V227.754C69.5113 228.555 69.9055 229.156 70.553 229.556C71.2287 229.928 72.0874 230.114 73.1291 230.114H73.5937C74.1568 230.114 74.5791 230.243 74.8606 230.5C75.1422 230.729 75.283 231.13 75.283 231.702C75.283 232.445 75.1422 232.932 74.8606 233.161C74.6073 233.361 74.1849 233.461 73.5937 233.461H72.7068C71.834 233.461 71.0598 233.289 70.3841 232.946C69.7084 232.574 69.1734 232.016 68.7793 231.273C68.1317 232.731 66.6818 233.461 64.4294 233.461H46.9877C46.7062 233.461 46.5654 233.318 46.5654 233.032V230.543C46.5654 230.257 46.7062 230.114 46.9877 230.114H55.3074V210.762C55.3074 210.476 55.4482 210.333 55.7297 210.333H58.4325C58.7141 210.333 58.8548 210.476 58.8548 210.762V230.114Z" fill="white"/>
<path d="M72.1024 233.461C71.5393 233.461 71.117 233.361 70.8354 233.161C70.5539 232.96 70.4131 232.56 70.4131 231.959C70.4131 231.244 70.5539 230.758 70.8354 230.5C71.0888 230.243 71.5111 230.114 72.1024 230.114H75.0164C75.7202 230.114 76.227 229.957 76.5367 229.642C76.8746 229.299 77.0435 228.698 77.0435 227.84V216.34C77.0435 216.054 77.1843 215.911 77.4658 215.911H80.1686C80.4502 215.911 80.5909 216.054 80.5909 216.34V228.054C80.5909 229.914 80.2109 231.287 79.4507 232.174C78.6905 233.032 77.4236 233.461 75.6498 233.461H72.1024ZM79.9575 211.663C79.6759 211.663 79.5352 211.52 79.5352 211.234V208.101C79.5352 207.815 79.6759 207.672 79.9575 207.672H82.8292C83.1108 207.672 83.2515 207.815 83.2515 208.101V211.234C83.2515 211.52 83.1108 211.663 82.8292 211.663H79.9575ZM74.8052 211.663C74.5237 211.663 74.3829 211.52 74.3829 211.234V208.101C74.3829 207.815 74.5237 207.672 74.8052 207.672H77.677C77.9585 207.672 78.0993 207.815 78.0993 208.101V211.234C78.0993 211.52 77.9585 211.663 77.677 211.663H74.8052Z" fill="white"/>
<path d="M88.2082 242C87.9266 242 87.7858 241.857 87.7858 241.571V239.082C87.7858 238.796 87.9266 238.653 88.2082 238.653H93.276C93.839 238.653 94.3599 238.582 94.8385 238.439C95.3172 238.324 95.7254 238.11 96.0632 237.795C96.4292 237.509 96.7108 237.094 96.9079 236.55C97.105 236.036 97.2035 235.378 97.2035 234.577V233.461H92.6847C91.4459 233.461 90.3197 233.318 89.3062 233.032C88.3208 232.717 87.4761 232.231 86.7723 231.573C86.0684 230.886 85.5335 229.985 85.1675 228.87C84.8015 227.754 84.6185 226.381 84.6185 224.75C84.6185 223.12 84.8296 221.704 85.2519 220.502C85.6743 219.272 86.2514 218.271 86.9834 217.498C87.7436 216.697 88.6164 216.111 89.6018 215.739C90.5872 215.339 91.643 215.138 92.7692 215.138C95.2749 215.138 97.2317 215.882 98.6394 217.37C100.047 218.829 100.751 221.203 100.751 224.493V234.491C100.751 235.835 100.568 236.98 100.202 237.924C99.8641 238.868 99.3714 239.64 98.7238 240.241C98.1044 240.841 97.3443 241.285 96.4433 241.571C95.5424 241.857 94.5429 242 93.4449 242H88.2082ZM92.7692 218.485C91.3333 218.485 90.2071 219.058 89.3906 220.202C88.5742 221.346 88.1659 222.862 88.1659 224.75C88.1659 226.781 88.5601 228.183 89.3484 228.955C90.1649 229.728 91.3615 230.114 92.9381 230.114H97.2035V224.493C97.2035 222.605 96.8516 221.132 96.1477 220.073C95.472 219.015 94.3458 218.485 92.7692 218.485Z" fill="white"/>
<path d="M104.972 204.711C104.972 204.425 105.113 204.282 105.394 204.282H108.097C108.379 204.282 108.52 204.425 108.52 204.711V227.84C108.52 228.698 108.674 229.299 108.984 229.642C109.322 229.957 109.843 230.114 110.547 230.114H112.405C113.531 230.114 114.094 230.686 114.094 231.83C114.094 232.546 113.953 233.003 113.672 233.204C113.418 233.375 112.996 233.461 112.405 233.461H109.913C108.14 233.461 106.873 233.032 106.112 232.174C105.352 231.287 104.972 229.914 104.972 228.054V204.711Z" fill="white"/>
<path d="M120.813 218.485C119.856 218.485 118.969 218.686 118.152 219.086C117.364 219.487 116.66 220.03 116.041 220.717C115.872 220.917 115.675 220.931 115.45 220.76L113.591 219.215C113.338 219.015 113.296 218.814 113.465 218.614C114.253 217.613 115.224 216.783 116.379 216.125C117.561 215.467 118.997 215.138 120.686 215.138C122.629 215.138 124.22 215.453 125.458 216.082C126.697 216.683 127.669 217.484 128.372 218.485C129.104 219.487 129.611 220.645 129.893 221.961C130.174 223.277 130.315 224.636 130.315 226.038C130.315 227.468 130.188 228.655 129.935 229.599C129.71 230.543 129.344 231.301 128.837 231.873C128.358 232.445 127.725 232.86 126.937 233.118C126.176 233.347 125.275 233.461 124.234 233.461H110.931C109.805 233.461 109.242 232.889 109.242 231.745C109.242 231.029 109.382 230.586 109.664 230.414C109.917 230.214 110.34 230.114 110.931 230.114H122.925C123.713 230.114 124.346 230.057 124.825 229.942C125.304 229.799 125.67 229.57 125.923 229.256C126.176 228.941 126.345 228.526 126.43 228.011C126.514 227.468 126.556 226.81 126.556 226.038C126.556 224.922 126.458 223.906 126.261 222.991C126.064 222.047 125.74 221.246 125.29 220.588C124.867 219.901 124.29 219.387 123.558 219.043C122.826 218.671 121.911 218.485 120.813 218.485ZM120.053 241.356C119.771 241.356 119.63 241.213 119.63 240.927V237.795C119.63 237.509 119.771 237.366 120.053 237.366H122.925C123.206 237.366 123.347 237.509 123.347 237.795V240.927C123.347 241.213 123.206 241.356 122.925 241.356H120.053Z" fill="white"/>
<path d="M149.432 226.123C149.432 227.554 149.305 228.741 149.052 229.685C148.827 230.629 148.461 231.387 147.954 231.959C147.475 232.503 146.856 232.889 146.096 233.118C145.336 233.347 144.421 233.461 143.351 233.461H133.975C133.694 233.461 133.553 233.318 133.553 233.032V230.543C133.553 230.257 133.694 230.114 133.975 230.114H142.042C142.83 230.114 143.463 230.057 143.942 229.942C144.421 229.799 144.787 229.585 145.04 229.299C145.293 228.984 145.462 228.584 145.547 228.097C145.631 227.611 145.674 226.996 145.674 226.252V222.819C145.674 219.93 144.069 218.485 140.859 218.485H135.96C135.679 218.485 135.538 218.342 135.538 218.056V215.568C135.538 215.281 135.679 215.138 135.96 215.138H142.168C144.308 215.138 146.054 215.753 147.405 216.984C148.756 218.214 149.432 220.145 149.432 222.776V226.123Z" fill="white"/>
</g>
<circle opacity="0.5" r="28.7411" transform="matrix(0.874362 -0.485274 0.874362 0.485274 102.193 97.1247)" fill="white"/>
<circle opacity="0.2" r="48.5827" transform="matrix(0.874362 -0.485274 0.874362 0.485274 102.193 97.1247)" fill="white"/>
<path d="M103.143 0.263123C83.2383 0.263123 67.1396 16.2488 67.1396 36.0138C67.1396 57.3109 89.8732 86.6775 99.2341 97.8624C101.291 100.314 105.046 100.314 107.103 97.8624C116.413 86.6775 139.146 57.3109 139.146 36.0138C139.146 16.2488 123.048 0.263123 103.143 0.263123ZM103.143 48.7818C99.7328 48.7818 96.4622 47.4366 94.0508 45.0422C91.6394 42.6477 90.2847 39.4001 90.2847 36.0138C90.2847 32.6275 91.6394 29.3798 94.0508 26.9854C96.4622 24.5909 99.7328 23.2457 103.143 23.2457C106.553 23.2457 109.824 24.5909 112.235 26.9854C114.647 29.3798 116.001 32.6275 116.001 36.0138C116.001 39.4001 114.647 42.6477 112.235 45.0422C109.824 47.4366 106.553 48.7818 103.143 48.7818Z" fill="white"/>
</svg>
