<svg width="66" height="63" viewBox="0 0 66 63" fill="none" xmlns="http://www.w3.org/2000/svg">
<rect y="6.89954" width="55.1962" height="55.1962" rx="12" fill="white"/>
<rect x="43.1221" width="22.4235" height="22.4235" rx="6" fill="#F1F1F2"/>
<rect x="45.709" y="2.58734" width="17.2488" height="17.2488" rx="4" fill="#EB5757"/>
<path d="M54.3338 7.76196V11.2117M54.3252 14.6615H54.3338" stroke="white" stroke-width="2" stroke-linecap="round" stroke-linejoin="round"/>
<path d="M33.125 44.4959V42.2459C33.125 41.0524 32.6509 39.9078 31.807 39.0639C30.9631 38.22 29.8185 37.7459 28.625 37.7459H19.625C18.4315 37.7459 17.2869 38.22 16.443 39.0639C15.5991 39.9078 15.125 41.0524 15.125 42.2459V44.4959M39.875 44.4959V42.2459C39.8743 41.2489 39.5424 40.2803 38.9315 39.4923C38.3207 38.7043 37.4654 38.1414 36.5 37.8922M32 24.3922C32.968 24.64 33.8259 25.2029 34.4386 25.9923C35.0513 26.7816 35.3838 27.7523 35.3838 28.7515C35.3838 29.7507 35.0513 30.7215 34.4386 31.5108C33.8259 32.3001 32.968 32.8631 32 33.1109M28.625 28.7459C28.625 31.2312 26.6103 33.2459 24.125 33.2459C21.6397 33.2459 19.625 31.2312 19.625 28.7459C19.625 26.2606 21.6397 24.2459 24.125 24.2459C26.6103 24.2459 28.625 26.2606 28.625 28.7459Z" stroke="url(#paint0_linear)" stroke-width="2" stroke-linecap="round" stroke-linejoin="round"/>
<defs>
<linearGradient id="paint0_linear" x1="20.2815" y1="47.2263" x2="32.3779" y2="22.11" gradientUnits="userSpaceOnUse">
<stop stop-color="#EE0979"/>
<stop offset="1" stop-color="#FF6A00"/>
</linearGradient>
</defs>
</svg>
