<svg width="450" height="773" viewBox="0 0 450 773" fill="none" xmlns="http://www.w3.org/2000/svg">
<mask id="mask0" mask-type="alpha" maskUnits="userSpaceOnUse" x="0" y="0" width="450" height="773">
<rect width="450" height="773" fill="url(#paint0_linear)"/>
</mask>
<g mask="url(#mask0)">
<g opacity="0.1">
<path d="M540.984 17.1344L225.49 -165L-90.0032 17.1344L225.49 199.269L540.984 17.1344ZM225.49 153.39L-10.3718 17.2265L225.49 -118.937L461.352 17.2265L225.49 153.39Z" fill="white"/>
<path d="M386.508 17.1343L225.49 -75.8214L64.4722 17.1344L225.49 110.09L386.508 17.1343Z" fill="white"/>
<path d="M-717.001 379.1L-401.507 561.234L-86.0136 379.1L-401.507 196.966L-717.001 379.1ZM-401.347 242.937L-165.485 379.1L-401.348 515.263L-637.21 379.1L-401.347 242.937Z" fill="white"/>
<path d="M-240.489 379.1L-401.507 286.144L-562.525 379.1L-401.507 472.056L-240.489 379.1Z" fill="white"/>
<path d="M-87.7691 742.355L227.724 924.49L543.218 742.355L227.724 560.221L-87.7691 742.355ZM227.724 606.1L463.586 742.263L227.724 878.426L-8.13789 742.263L227.724 606.1Z" fill="white"/>
<path d="M388.742 742.355L227.724 649.399L66.7061 742.355L227.724 835.311L388.742 742.355Z" fill="white"/>
<path d="M681.735 387.299L491.513 277.484L625.722 200.006L498.056 126.304L458.161 149.336L546.09 200.098L411.882 277.576L641.839 410.331L681.735 387.299Z" fill="white"/>
<path d="M587.901 115.71L548.165 92.7703L510.823 114.328L550.559 137.268L587.901 115.71Z" fill="white"/>
<path d="M643.914 83.3734L604.178 60.4339L574.815 77.3851L614.551 100.325L643.914 83.3734Z" fill="white"/>
<path d="M474.278 181.304L434.542 158.364L397.2 179.922L436.936 202.862L474.278 181.304Z" fill="white"/>
<path d="M-180.805 644.056L-220.541 621.117L-257.883 642.674L-218.147 665.614L-180.805 644.056Z" fill="white"/>
<path d="M666.255 312.4L628.913 290.843L589.177 313.782L626.519 335.34L666.255 312.4Z" fill="white"/>
<path d="M737.269 353.396L699.927 331.839L660.191 354.778L697.533 376.336L737.269 353.396Z" fill="white"/>
<path d="M-3.66956 171.999L-175.858 72.5946L-215.594 95.5341L-3.66953 217.878L71.0149 174.763L204.106 251.597L244.002 228.565L71.1744 128.792L-3.66956 171.999Z" fill="white"/>
<path d="M68.4616 348.882L17.3954 319.402L61.4402 293.975L-37.0219 237.133L-21.7021 228.289L-61.438 205.349L-116.653 237.225L-18.1913 294.067L-62.0763 319.402L28.7259 371.822L68.4616 348.882Z" fill="white"/>
<path d="M-130.856 157.535L-212.083 110.643L-251.819 133.582L-170.592 180.475L-130.856 157.535Z" fill="white"/>
<path d="M53.9397 118.842L13.4059 95.442L-26.33 118.382L14.2037 141.782L53.9397 118.842Z" fill="white"/>
<path d="M-140.591 207.929L-181.284 184.436L-221.02 207.376L-180.327 230.868L-140.591 207.929Z" fill="white"/>
<path d="M366.561 385.733L285.333 338.841L245.597 361.78L326.825 408.673L366.561 385.733Z" fill="white"/>
<path d="M580.081 562.248L498.854 515.355L459.118 538.295L540.345 585.187L580.081 562.248Z" fill="white"/>
<path d="M434.223 424.795L393.53 401.302L353.794 424.242L394.487 447.734L434.223 424.795Z" fill="white"/>
<path d="M695.618 500.891L655.883 477.952L571.145 526.871L610.88 549.811L695.618 500.891Z" fill="white"/>
<path d="M122.241 384.535L82.5047 361.596L1.11799 408.58L40.8539 431.52L122.241 384.535Z" fill="white"/>
<path d="M320.282 270.206L280.546 247.267L128.145 335.248L167.881 358.187L320.282 270.206Z" fill="white"/>
<path d="M674.554 173.842L763.441 225.156L792.485 208.389L844.189 238.238L884.085 215.207L691.788 104.194L651.893 127.226L703.598 157.075L674.554 173.842Z" fill="white"/>
<path d="M712.534 226.17L672.798 203.23L582.634 255.282L622.37 278.221L712.534 226.17Z" fill="white"/>
<path d="M732.322 236.119L692.427 259.151L788.016 314.335L756.26 332.668L796.155 355.7L917.118 285.868L877.223 262.836L827.912 291.303L732.322 236.119Z" fill="white"/>
<path d="M957.333 503.287L1125.53 406.185L1085.64 383.153L1030.74 414.845L931.002 357.266L891.266 380.205L933.715 404.711L897.49 425.624L866.211 407.567L848.657 417.701L818.816 400.473L864.935 373.849L825.04 350.817L759.132 388.865L762.164 390.616L742.216 402.131L808.922 440.64L787.059 453.262L818.337 471.319L803.017 480.163L703.757 422.86L663.862 445.892L763.122 503.194L565.4 617.339L434.223 541.611L394.488 564.551L525.664 640.279L504.599 652.44L437.734 613.838L397.998 636.778L504.599 698.319L763.281 548.981L780.835 559.115L728.173 589.517L768.069 612.549L889.032 542.717L849.136 519.685L820.731 536.084L803.177 525.95L973.451 427.651L991.005 437.785L917.437 480.255L957.333 503.287Z" fill="white"/>
<path d="M1005.69 356.529L1041.91 377.442L1081.81 354.41L1045.58 333.497L1061.38 324.377L1021.64 301.437L950.311 342.618L990.047 365.557L1005.69 356.529Z" fill="white"/>
<path d="M938.502 331.194L898.766 308.255L858.073 331.747L897.809 354.686L938.502 331.194Z" fill="white"/>
<path d="M1003.29 293.791L963.557 270.851L922.863 294.343L962.599 317.283L1003.29 293.791Z" fill="white"/>
<path d="M204.904 270.114L107.559 213.917L67.8233 236.856L165.168 293.054L204.904 270.114Z" fill="white"/>
<path d="M159.743 300.055L120.007 277.116L83.622 298.121L123.358 321.06L159.743 300.055Z" fill="white"/>
<path d="M-131.494 468.186L-171.23 445.247L-207.455 466.16L-167.72 489.099L-131.494 468.186Z" fill="white"/>
<path d="M335.282 556.72L295.547 533.78L259.162 554.785L298.898 577.725L335.282 556.72Z" fill="white"/>
<path d="M380.923 331.194L341.187 308.254L304.962 329.167L344.698 352.107L380.923 331.194Z" fill="white"/>
<path d="M120.166 601.125L80.4303 578.186L44.2053 599.098L83.9412 622.038L120.166 601.125Z" fill="white"/>
<path d="M39.8965 609.324L0.16055 586.385L-36.0647 607.298L3.67125 630.237L39.8965 609.324Z" fill="white"/>
<path d="M22.6617 657.414L-17.0742 634.475L-53.2994 655.388L-13.5635 678.327L22.6617 657.414Z" fill="white"/>
<path d="M408.052 598.73L368.316 575.79L331.931 596.795L371.667 619.735L408.052 598.73Z" fill="white"/>
<path d="M-33.3516 411.528L-73.0874 388.589L-109.313 409.502L-69.5768 432.441L-33.3516 411.528Z" fill="white"/>
<path d="M-122.079 540.322L-161.815 517.382L-198.04 538.295L-158.304 561.234L-122.079 540.322Z" fill="white"/>
<path d="M113.464 326.772L73.728 303.832L37.5028 324.745L77.2386 347.685L113.464 326.772Z" fill="white"/>
<path d="M-87.4501 359.477L-47.5546 336.445L-128.303 289.829L-101.015 274.076L-140.75 251.136L-157.347 260.717L-329.536 161.312L-369.431 184.344L-197.242 283.749L-207.934 289.921L-87.4501 359.477Z" fill="white"/>
<path d="M-66.2256 115.618L-8.93562 82.5442L-101.014 29.3871L-140.91 52.4188L-88.567 82.6363L-105.961 92.6781L-66.2256 115.618Z" fill="white"/>
<path d="M581.996 417.425L450.341 341.42L410.605 364.36L502.524 417.425L446.511 449.761L486.247 472.701L581.996 417.425Z" fill="white"/>
<path d="M436.298 498.404L396.562 475.464L354.751 499.601L322.197 480.808L282.461 503.747L354.751 545.481L436.298 498.404Z" fill="white"/>
<path d="M127.507 513.973L167.243 491.034L146.657 479.149L238.257 426.269L258.843 438.153L298.738 415.121L238.416 380.297L172.669 418.254L150.646 405.54L110.91 428.48L132.933 441.193L67.185 479.149L127.507 513.973Z" fill="white"/>
<path d="M15.6401 460.816L-24.0958 437.877L-129.101 498.496L-68.6192 533.412L-196.125 607.021L-156.389 629.961L10.8526 533.412L-49.6289 498.496L15.6401 460.816Z" fill="white"/>
<path d="M-208.094 587.582L-296.343 536.636L-336.078 559.576L-247.83 610.522L-208.094 587.582Z" fill="white"/>
<path d="M345.496 259.335L385.232 282.275L457.842 240.357L340.708 172.736L300.973 195.676L378.37 240.357L345.496 259.335Z" fill="white"/>
<path d="M155.434 550.916L51.8651 491.126L12.1292 514.065L115.698 573.856L155.434 550.916Z" fill="white"/>
</g>
</g>
<defs>
<linearGradient id="paint0_linear" x1="93.7546" y1="877.226" x2="684.293" y2="293.202" gradientUnits="userSpaceOnUse">
<stop stop-color="#EE0979"/>
<stop offset="1" stop-color="#FF6A00"/>
</linearGradient>
</defs>
</svg>
