<svg width="24" height="24" viewBox="0 0 24 24" fill="none" xmlns="http://www.w3.org/2000/svg">
<g clip-path="url(#clip0)">
<path d="M0 0V6.9999H6.9999V0H0ZM5.0001 5.0001H2.0001V2.0001H5.0001V5.0001Z" fill="#4F4F4F"/>
<path d="M0 16.9998V24H6.9999V16.9998H0ZM5.0001 22.0002H2.0001V19.0002H5.0001V22.0002Z" fill="#4F4F4F"/>
<path d="M17.0001 0V6.9999H24V0H17.0001ZM21.9999 5.0001H18.9999V2.0001H21.9999V5.0001Z" fill="#4F4F4F"/>
<path d="M21.9999 9V15H17.0001V16.9998H24V9H21.9999Z" fill="#4F4F4F"/>
<path d="M17.0001 19.0002V24H18.9999V21H21.9999V24H24V19.0002H17.0001Z" fill="#4F4F4F"/>
<path d="M9 0V2.0001H12.9999V6.9999H15V0H9Z" fill="#4F4F4F"/>
<path d="M12.9999 9V13.0002H9V19.0002H12.9999V24H15V16.9998H11.0001V15H15V11.0001H17.0001V13.0002H18.9999V9H12.9999Z" fill="#4F4F4F"/>
<path d="M11.0001 21H9V24H11.0001V21Z" fill="#4F4F4F"/>
<path d="M6.9999 13.0002H3.9999V15H6.9999V13.0002Z" fill="#4F4F4F"/>
<path d="M9 3.9999V9H0V15H2.0001V11.0001H11.0001V3.9999H9Z" fill="#4F4F4F"/>
</g>
<defs>
<clipPath id="clip0">
<rect width="24" height="24" fill="white"/>
</clipPath>
</defs>
</svg>
