<svg width="20" height="20" viewBox="0 0 20 20" fill="none" xmlns="http://www.w3.org/2000/svg">
<path d="M19.1668 3.33331V8.33332L14.1668 8.33332M0.833496 16.6666L0.833496 11.6666H5.8335M2.92516 7.49998C3.3478 6.30564 4.06611 5.23782 5.01305 4.39616C5.96 3.55451 7.10472 2.96645 8.3404 2.68686C9.57608 2.40727 10.8625 2.44527 12.0795 2.79729C13.2965 3.14932 14.4045 3.80391 15.3002 4.69998M4.70016 15.3C5.59579 16.1961 6.70381 16.8506 7.92084 17.2027C9.13787 17.5547 10.4242 17.5927 11.6599 17.3131C12.8956 17.0335 14.0403 16.4455 14.9873 15.6038C15.9342 14.7621 16.6525 13.6943 17.0752 12.5" stroke="url(#paint0_linear)" stroke-width="1.5" stroke-linecap="round" stroke-linejoin="round"/>
<defs>
<linearGradient id="paint0_linear" x1="4.65313" y1="19.52" x2="13.6096" y2="0.918348" gradientUnits="userSpaceOnUse">
<stop stop-color="#EE0979"/>
<stop offset="1" stop-color="#FF6A00"/>
</linearGradient>
</defs>
</svg>
